<svg width="180" height="38" viewBox="0 0 180 38" xmlns="http://www.w3.org/2000/svg" role="img" aria-label="Fanvue">
  <g fill="currentColor">
    <path d="M0 6h14v5H6v5h7v5H6v11H0V6z"/>
    <path d="M22 6h6v11h9V6h6v26h-6V22h-9v10h-6V6z"/>
    <path d="M54 32V6h6l10 15 10-15h6v26h-6V18l-10 14-10-14v14h-6z"/>
    <path d="M104 19c0-7.4 6.1-13 14-13s14 5.6 14 13-6.1 13-14 13-14-5.6-14-13zm22 0c0-4.2-3.2-7.4-8-7.4s-8 3.2-8 7.4 3.2 7.4 8 7.4 8-3.2 8-7.4z"/>
    <path d="M145 6h6l6 17 6-17h6l-9 26h-6l-9-26z"/>
  </g>
</svg>

